# xmcd CD database file
#
# Track frame offsets:
#	182
#	18102
#	37912
#	57945
#	76595
#	103465
#	125687
#	146322
#	163757
#	188820
#	209140
#	229587
#
# Disc length: 3268 seconds
#
# Revision: 2
# Processed by: cddbd v1.5.2PL0 Copyright (c) Steve Scherf et al.
# Submitted via: CDex 1.51
#
DISCID=9d0cc20c
DTITLE=Sherman Robertson - I'm The Man
DYEAR=1993
DGENRE=Blues
TTITLE0=I'm Your Man
TTITLE1=Somebody's Messin'
TTITLE2=Am I Losing You?
TTITLE3=Special Kind Of Loving
TTITLE4=Make It Rain
TTITLE5=Out Of Sight Out Of Mind
TTITLE6=Linda Lou
TTITLE7=Home Of The Blues
TTITLE8=Our Good Thing Is Through
TTITLE9=Vacating The Blues
TTITLE10=Helping Hand
TTITLE11=Take A Message
EXTD=YEAR: 1993
EXTT0=
EXTT1=
EXTT2=
EXTT3=
EXTT4=
EXTT5=
EXTT6=
EXTT7=
EXTT8=
EXTT9=
EXTT10=
EXTT11=
PLAYORDER=
